# xmcd
#
# Track frame offsets:
#	150
#	18561
#	36568
#	52739
#	67397
#	82697
#	103622
#	119513
#	136249
#	154858
#	172234
#	189538
#	205663
#	214670
#	227337
#	244504
#	261570
#	277111
#
# Disc length: 3921 seconds
#
# Revision: 0
# Processed by: cddbd v1.5.2PL0 Copyright (c) Steve Scherf et al.
# Submitted via: EasyCDDAExtractor 11.5.0.1
#
DISCID=070f4f12
DTITLE=Various Artist - NCT 097
DYEAR=2007
DGENRE=Country
TTITLE0=Tim McGraw with Faith Hill - I Need You
TTITLE1=Keith Urban - I Told You So
TTITLE2=Clay Walker - Fall
TTITLE3=Jack Ingram - Measure Of A Man
TTITLE4=Van Zant - That Scares Me
TTITLE5=Keith Anderson - Sunday Morning In America
TTITLE6=Randy Archer - Just As Crazy
TTITLE7=Trace Adkins - I Wanna Feel Something
TTITLE8=Bon Jovi - (You Want To) Make A Memory
TTITLE9=Trent Bourgeois - Duct Taped Bible
TTITLE10=Jamie Slocum - Say Hello To Heaven
TTITLE11=Megan Mullins - Cryin' Days
TTITLE12=Alabama - The Star Spangled Banner
TTITLE13=Steve Cochran - Friday Night Fireside
TTITLE14=Martina McBride - How I Feel
TTITLE15=Kate Russell - Better Days
TTITLE16=Jason Allen - It's Your World
TTITLE17=Bart Crow Band - Driftin' In The Wind
EXTD=
EXTT0=
EXTT1=
EXTT2=
EXTT3=
EXTT4=
EXTT5=
EXTT6=
EXTT7=
EXTT8=
EXTT9=
EXTT10=
EXTT11=
EXTT12=
EXTT13=
EXTT14=
EXTT15=
EXTT16=
EXTT17=
PLAYORDER=
